# xmcd
#
# Track frame offsets:
#	183
#	11990
#	22770
#	35450
#	47583
#	58870
#	74108
#	85555
#	94845
#	107180
#	119848
#	130748
#	143455
#	156508
#	167123
#	178210
#	190768
#	203898
#	215975
#	224115
#	234590
#	244223
#	255870
#	266090
#	278490
#
# Disc length: 3854
#
# Revision: 1
# Processed by: cddbd v1.5.1PL0 Copyright (c) Steve Scherf et al.
# Submitted via: CDex 1.51
# Normalized: r0:DSETVAR1,TDELIM( - )
#
DISCID=7f0f0c19
DTITLE=Various Artist - Onvergetelijke Country Hits CD1
DYEAR=1988
DGENRE=Country
TTITLE0=Johnny Cash - I Walk The Line
TTITLE1=Leroy van Dyke - Walk On By
TTITLE2=Hank now - I've Been Everywhere
TTITLE3=Yammy Wynette - Stand By Your Man
TTITLE4=Roger Miller - King Of The Road
TTITLE5=Jim Reeves - Blue Side Of Lonesome
TTITLE6=Sonny James - A World Of Our Own
TTITLE7=Marty Robbins - Ruby Ann
TTITLE8=Johnny Cash - Understand Your Man
TTITLE9=Patsy Cline - I Fall To Pieces
TTITLE10=Hank Locklin - Plese Help Me, I'm Falling
TTITLE11=Eddy Arnold - Then You Can Tell Me Goodbye
TTITLE12=David Houston/Tammy Wynette - My Elusive Dreams
TTITLE13=Ferlin Husky - Wings Of A Dove
TTITLE14=Faron Young - Hello Walls
TTITLE15=Frank Ifield - The Wayward Wind
TTITLE16=Bobbie Gentry - I Never Fall In Love Again
TTITLE17=Roger Miller - Little Green Apples
TTITLE18=John D. Loudermilk - The Language Of Love
TTITLE19=Johnny Tillotson - Send Me The Pillow That You Dream On
TTITLE20=Slim Whitman - I Remember You
TTITLE21=Patsy Cline - Sweet Dreams
TTITLE22=Dave Dudley - Six Days On The Road
TTITLE23=Bobby Bare - 500 Miles
TTITLE24=Charlie Rich - There Won't Be Anymore
EXTD=YEAR: 1988
EXTT0=
EXTT1=
EXTT2=
EXTT3=
EXTT4=
EXTT5=
EXTT6=
EXTT7=
EXTT8=
EXTT9=
EXTT10=
EXTT11=
EXTT12=
EXTT13=
EXTT14=
EXTT15=
EXTT16=
EXTT17=
EXTT18=
EXTT19=
EXTT20=
EXTT21=
EXTT22=
EXTT23=
EXTT24=
PLAYORDER=
